<svg t="1710682479055" class="icon" viewBox="0 0 1024 1024" version="1.1" xmlns="http://www.w3.org/2000/svg" p-id="5786" width="128" height="128"><path d="M796.8 0v1024H340.8c-62.4 0-113.6-51.2-113.6-113.6V113.6c0-62.4 51.2-113.6 113.6-113.6h456z" fill="#1E65FD" p-id="5787" data-spm-anchor-id="a313x.search_index.0.i1.20ff3a81rYQnzm" class=""></path><path d="M619.2 787.2c11.2 9.6 27.2 11.2 41.6 6.4 12.8-4.8 22.4-17.6 22.4-32 0-9.6-4.8-17.6-12.8-24L435.2 526.4l235.2-211.2c8-6.4 11.2-14.4 12.8-24 0-9.6-3.2-17.6-9.6-24-6.4-6.4-16-11.2-25.6-11.2s-19.2 3.2-27.2 9.6L353.6 500.8c-6.4 6.4-11.2 14.4-12.8 24 0 9.6 3.2 17.6 9.6 24l1.6 1.6 1.6 1.6 265.6 235.2z" fill="#FFFFFF" p-id="5788"></path></svg>