<svg t="1717479068037" class="icon" viewBox="0 0 1024 1024" version="1.1" xmlns="http://www.w3.org/2000/svg" p-id="8926" width="256" height="256"><path d="M512 0C230.4 0 0 230.4 0 512s230.4 512 512 512 512-230.4 512-512S793.6 0 512 0z m256 762.311111c0 42.666667-34.133333 76.8-76.8 76.8H310.044444c-42.666667 0-76.8-34.133333-76.8-76.8V261.688889c0-42.666667 34.133333-76.8 76.8-76.8h307.2l153.6 153.6v423.822222z" fill="#1aaba8" p-id="8927"></path><path d="M600.177778 318.577778v-85.333334h-273.066667c-28.444444 0-45.511111 14.222222-45.511111 42.666667v469.333333c0 28.444444 17.066667 45.511111 45.511111 45.511112h344.177778c28.444444 0 54.044444-14.222222 54.044444-45.511112v-398.222222h-93.866666c-17.066667 2.844444-31.288889-11.377778-31.288889-28.444444zM597.333333 628.622222h-190.577777c-11.377778 0-19.911111-8.533333-19.911112-19.911111 0-11.377778 8.533333-19.911111 19.911112-19.911111H597.333333c11.377778 0 19.911111 8.533333 19.911111 19.911111 0 11.377778-11.377778 19.911111-19.911111 19.911111z m0-76.8h-190.577777c-11.377778 0-19.911111-8.533333-19.911112-19.911111 0-11.377778 8.533333-19.911111 19.911112-19.911111H597.333333c11.377778 0 19.911111 8.533333 19.911111 19.911111 0 11.377778-11.377778 19.911111-19.911111 19.911111z m19.911111-96.711111c0 11.377778-8.533333 19.911111-19.911111 19.911111h-190.577777c-11.377778 0-19.911111-8.533333-19.911112-19.911111 0-11.377778 8.533333-19.911111 19.911112-19.911111H597.333333c8.533333 0 19.911111 8.533333 19.911111 19.911111z" fill="#1aaba8" p-id="8928"></path></svg>