<svg t="1717479110061" class="icon" viewBox="0 0 1024 1024" version="1.1" xmlns="http://www.w3.org/2000/svg" p-id="11699" width="256" height="256"><path d="M972.8 512c0 254.464-206.336 460.8-460.8 460.8S51.2 766.464 51.2 512 257.536 51.2 512 51.2s460.8 206.336 460.8 460.8zM719.36 304.64c0-25.3952-20.6848-46.08-46.08-46.08h-322.56c-25.2928 0-46.08 20.6848-46.08 46.08v414.72c0 25.2928 20.7872 46.08 46.08 46.08h322.56c25.2928 0 46.08-20.6848 46.08-46.08v-414.72z m-57.0368 94.4128c9.5232 0 17.3056-7.7824 17.3056-17.3056s-7.7824-17.3056-17.3056-17.3056h-235.52c-9.5232 0-17.3056 7.7824-17.3056 17.3056s7.7824 17.3056 17.3056 17.3056h235.52z m0 118.3744a17.28512 17.28512 0 0 0 0-34.5088h-235.52c-9.5232 0-17.3056 7.7824-17.3056 17.3056s7.7824 17.3056 17.3056 17.3056h235.52z m-98.7136 118.272c9.5232 0 17.3056-7.7824 17.3056-17.3056 0-9.5232-7.7824-17.3056-17.3056-17.3056H426.8032c-9.5232 0-17.3056 7.7824-17.3056 17.3056 0 9.5232 7.7824 17.3056 17.3056 17.3056h136.8064zM371.5072 399.0528c9.5232 0 17.3056-7.68 17.3056-17.3056s-7.68-17.3056-17.3056-17.3056h-9.216c-9.5232 0-17.3056 7.7824-17.3056 17.3056s7.7824 17.3056 17.3056 17.3056h9.216z m0 118.3744c9.5232 0 17.3056-7.7824 17.3056-17.3056s-7.7824-17.3056-17.3056-17.3056h-9.216c-9.5232 0-17.3056 7.7824-17.3056 17.3056s7.7824 17.3056 17.3056 17.3056h9.216z m0.512 118.272c9.5232 0 17.3056-7.7824 17.3056-17.3056 0-9.5232-7.7824-17.3056-17.3056-17.3056h-10.3424c-9.5232 0-17.3056 7.7824-17.3056 17.3056 0 9.5232 7.7824 17.3056 17.3056 17.3056h10.3424z" fill="#409EFF" p-id="11700"></path></svg>