<svg t="1711951102135" class="icon" viewBox="0 0 1024 1024" version="1.1" xmlns="http://www.w3.org/2000/svg" p-id="10641" data-spm-anchor-id="a313x.search_index.0.i1.2fe23a81kfXfFW" width="48" height="48"><path d="M511.999716 0C229.20552 0 0.000569 229.204951 0.000569 511.999147a509.609817 509.609817 0 0 0 84.650525 282.054641c9.045318 8.078209 31.061282 12.28798 44.657704 1.706664a41.415042 41.415042 0 0 0 13.482644-44.316371 561.719953 561.719953 0 0 1-36.181273-68.152775A439.977933 439.977933 0 0 1 823.067642 200.817443a440.262377 440.262377 0 0 1-139.889545 716.57125 439.18149 439.18149 0 0 1-465.350336-78.27898c-20.479966-10.524427-47.217699 8.419542-49.379473 25.713735-3.413328 27.704843 15.701307 39.935933 29.354618 51.427469A509.780484 509.780484 0 0 0 511.999716 1023.941405a511.999147 511.999147 0 0 0 511.999146-511.999147C1023.998862 229.26184 794.737022 0 511.999716 0z" fill="#397AFD" p-id="10642"></path><path d="M443.334941 659.170457l241.777375-145.009536c14.961753-8.988429 15.07553-23.722627 0-32.767946l-241.777375-145.009536c-14.961753-8.988429-27.306621-2.047997-27.306621 15.758196v291.270626c0 17.749304 12.231091 24.803514 27.306621 15.758196z" fill="#397AFD" p-id="10643"></path></svg>