<?xml version="1.0" standalone="no"?><!DOCTYPE svg PUBLIC "-//W3C//DTD SVG 1.1//EN" "http://www.w3.org/Graphics/SVG/1.1/DTD/svg11.dtd"><svg class="icon" width="128px" height="128.00px" viewBox="0 0 1024 1024" version="1.1" xmlns="http://www.w3.org/2000/svg"><path fill="#1E65FD" d="M781.6 957.8h-18.3c-13.3 0-24-10.8-24-24 0-13.3 10.8-24 24-24h18.3l13.5 0.1c29.3 0 57.1-28.4 57.1-58.5v-433c0-40.6-5-51.1-38.4-79.8L550.7 125c-0.2-0.1-0.3-0.3-0.5-0.4-7.8-6.7-22.7-10.8-38.8-10.8-16.1 0-31 4.2-38.8 10.8-0.2 0.1-0.3 0.3-0.5 0.4 0 0-176.2 143-263.2 213.5-0.1 0.1-0.3 0.2-0.4 0.4-36.5 28.2-38 45-38 80.3v432.1c0 13.6 6.9 28.2 18.9 40.2 11.6 11.5 25.8 18.4 38.2 18.4 0 0 286.1-0.1 306.3-0.1 23.7 0 42.4-3.6 56.4-10.9 16.9-8.7 27.3-25.9 30.5-40.2s3.4-27.6 3.4-37.9V568.9c0-15.5-6.1-21.6-21.6-21.6H420.2c-15.5 0-21.6 6.1-21.6 21.6V798c0 13.1-10.6 23.7-23.7 23.7h-0.6c-13.1 0-23.7-10.6-23.7-23.7V568.9c0-42.3 27.3-69.6 69.6-69.6h182.4c42.3 0 69.6 27.3 69.6 69.6v251.8c0 12.5 0 32.7-6 53.8-6.9 26.7-22.8 42.8-22.8 42.8-8.8 9.9-19.4 18.1-32 24.4-20.8 10.5-46.9 15.8-77.5 15.8-20.2 0-306.3 0.1-306.3 0.1-25.1 0-51.3-11.8-72-32.3-21-20.9-33.1-47.9-33.1-74.2v-432c0-43.6 4-77.6 56.4-118.1 85.3-69.2 256-207.7 262.8-213.2 16.6-14.1 42-22.1 69.7-22.1 27.7 0 53.1 8.1 69.7 22.1l263.2 213.7c0.2 0.1 0.3 0.3 0.5 0.4 44 37.8 55.3 61.7 55.3 116.4v433c0 27.3-11.7 54.6-32 74.9-20.1 20.1-46.7 31.6-73.1 31.6h-13.4z"  /></svg>