<svg t="1711951249377" class="icon" viewBox="0 0 1024 1024" version="1.1" xmlns="http://www.w3.org/2000/svg" p-id="17770" width="48" height="48"><path d="M512 1024C230.4 1024 0 793.6 0 512S230.4 0 512 0s512 230.4 512 512-230.4 512-512 512z m0-928C281.6 96 96 281.6 96 512s185.6 416 416 416 416-185.6 416-416S742.4 96 512 96z" fill="#F43131" p-id="17771"></path><path d="M416 723.2c-25.6 0-51.2-19.2-51.2-51.2V390.4c0-25.6 19.2-51.2 51.2-51.2s51.2 19.2 51.2 51.2v288c-6.4 25.6-25.6 44.8-51.2 44.8z m192 0c-25.6 0-51.2-19.2-51.2-51.2V390.4c0-25.6 19.2-51.2 51.2-51.2s51.2 19.2 51.2 51.2v288c0 25.6-25.6 44.8-51.2 44.8z" fill="#F43131" p-id="17772"></path></svg>